<?xml version="1.0" encoding="utf-8"?>
<!-- Generator: Adobe Illustrator 16.0.0, SVG Export Plug-In . SVG Version: 6.00 Build 0)  -->
<!DOCTYPE svg PUBLIC "-//W3C//DTD SVG 1.1//EN" "http://www.w3.org/Graphics/SVG/1.1/DTD/svg11.dtd">
<svg version="1.1" id="Layer_1" xmlns="http://www.w3.org/2000/svg" xmlns:xlink="http://www.w3.org/1999/xlink" x="0px" y="0px"
	 width="170px" height="35px" viewBox="0 7.5 170 35" enable-background="new 0 7.5 170 35" xml:space="preserve">
<g>
	<g>
		<path d="M22.981,19.201c-0.261-0.583-1.279-1.169-1.709-1.632c-0.24-0.255-0.403-0.597-0.7-0.853
			c-2.2-0.598-3.666-1.929-5.671-2.721c-2.145-0.004-3.745,3.058-1.865,4.507c-1.89-0.107-2.576-3.73-1.089-5.051
			c0.805-0.385,1.535-0.847,2.875-0.698c0.293,0.224,0.664,0.372,0.854,0.698c-2.02-0.785-4.732,1.192-3.729,3.653
			c0.103-0.134-0.068-0.655,0-1.01c0.571-1.265,1.749-2.351,3.263-2.253c1.351,0.085,2.905,1.527,4.119,2.097
			c0.46,0.215,1.036,0.38,1.399,0.622c0.236,0.159,0.564,0.741,1.009,1.166c0.368,0.352,0.864,0.527,1.011,0.699
			c0.052,0.061-0.064,0.173-0.077,0.156C22.756,18.695,23.205,18.942,22.981,19.201z"/>
		<path fill="#FFFFFF" d="M39.687,14.073c-0.438,0.1-1.064-0.281-1.554-0.389c-0.606,0.004-0.133-0.133,0.233-0.078
			C38.713,13.659,39.485,14.052,39.687,14.073z"/>
		<path fill="#FFFFFF" d="M37.045,13.917c0.419-0.157,0.981,0.209,1.476,0.234C38.055,14.357,37.569,13.914,37.045,13.917z"/>
		<path fill="#FFFFFF" d="M31.684,14.228c0.946-0.142,2.028,0.25,2.797,0.544C33.752,14.698,32.728,14.245,31.684,14.228z"/>
		<path fill="#FFFFFF" d="M30.984,15.239c-0.947,0.144-1.909-0.371-3.107-0.233C28.79,14.6,30.008,15.192,30.984,15.239z"/>
		<path fill="#FFFFFF" d="M26.711,15.549c-0.083,0.176-0.488,0.03-0.7,0.078C26.114,15.403,26.503,15.467,26.711,15.549z"/>
		<path fill="#FFFFFF" d="M39.531,15.937c-0.179,0.174-0.477-0.192-0.699-0.233C39.011,15.53,39.309,15.897,39.531,15.937z"/>
		<path d="M12.647,17.025c0.62,0.157,0.649,0.904,0.932,1.398C13.203,18.378,12.69,17.407,12.647,17.025z"/>
		<path d="M20.417,17.025c0.078,0,0.155,0,0.233,0c0.006,0.279,0.121,0.449,0.155,0.699C20.588,17.58,20.506,17.299,20.417,17.025z"
			/>
		<path d="M19.562,18.191c0.359,0.082,0.312,0.568,0.312,1.01c-0.202,0.099-0.235,0.17-0.467,0.078
			c0.207-0.078,0.346-0.224,0.389-0.465C19.844,18.484,19.373,18.419,19.562,18.191z"/>
		<path d="M13.424,18.657c0.521,1.032,1.988,1.12,2.408,2.253c-0.337-0.47-0.851-0.505-1.632-0.388
			C13.662,20.18,13.357,19.604,13.424,18.657z"/>
		<path d="M20.65,18.657c0.145,0.027-0.01,0.396-0.078,0.466c0.312,0.284,0.657,0.534,0.933,0.854c-0.012,0.193-0.264,0.023-0.312,0
			c-0.299,0.181-0.029,0.624,0,0.932c-0.29-0.245-0.439-0.323-0.854-0.31C20.209,19.851,20.35,19.176,20.65,18.657z"/>
		<path d="M17.619,18.967c0.271-0.163,0.374,0.506,0.623,0.623c-0.163,0.168-0.223-0.04-0.467,0
			C17.662,19.443,17.771,19.074,17.619,18.967z"/>
		<path d="M15.91,18.967c0.069,0.048,0.139,0.095,0.155,0c0.047,0.369,0.371,0.459,0.544,0.7c-0.27,0.063-0.298-0.116-0.544-0.077
			C16.054,19.343,15.889,19.247,15.91,18.967z"/>
		<path fill="#FFFFFF" d="M44.193,20.366c-0.316-0.201-0.383-0.651-0.389-1.166c0.165-0.069,0.231-0.237,0.468-0.233
			C44.323,19.562,44.344,19.865,44.193,20.366z"/>
		<path d="M18.785,20.056c0.291,0.072,0.102,0.624,0.156,0.932C18.779,20.787,18.776,20.428,18.785,20.056z"/>
		<path d="M17.075,20.211c0.458-0.126,0.167,1.786,0.155,0.932C17.177,20.81,16.948,20.501,17.075,20.211z"/>
		<path d="M37.744,20.289c0.172,0.01,0.033,0.33,0.078,0.466c-0.205,0.097-0.494,0.383-0.777,0.156
			C37.215,20.641,37.592,20.576,37.744,20.289z"/>
		<path d="M39.221,20.289c0.372,0.793-0.003,2.335,0.233,3.265C39.165,22.722,39.057,21.312,39.221,20.289z"/>
		<path d="M45.282,21.299C45.11,20.983,45.537,20.162,45.282,21.299L45.282,21.299z"/>
		<path fill="#FFFFFF" d="M23.059,20.988c0.173,0.034,0.031,0.384,0.078,0.544C22.91,21.531,22.954,21.093,23.059,20.988z"/>
		<path d="M35.102,21.066c0.156,0,0.312,0,0.467,0c0.186,0.5-0.245,1.231-0.077,1.398c-0.272-0.271,0.249-0.895-0.078-1.321
			c-0.25,0.698,0.146,1.773-0.078,2.254c0.296,0.062,0.099-0.37,0.156-0.545c0.12-0.198,0.12,0.64,0,0.7
			C34.946,23.129,35.528,21.742,35.102,21.066z"/>
		<path d="M40.23,21.221c0.239,0.75,0.315,2.476,0.156,3.107C40.375,23.252,40.257,22.284,40.23,21.221z"/>
		<path d="M22.204,22.153c0.185-0.179,0.698-0.028,1.011-0.078C23.031,22.254,22.516,22.104,22.204,22.153z"/>
		<path fill="#FFFFFF" d="M48.079,22.387c-0.456,0.143-1.284,0.321-1.787,0.155C46.645,22.288,47.596,22.257,48.079,22.387z"/>
		<path d="M41.862,22.387c0.123,0.359,0.289,1.452,0.078,1.632C41.999,23.391,41.848,22.971,41.862,22.387z"/>
		<path fill="#FFFFFF" d="M19.329,22.93c-0.247-0.015-0.725-0.202-0.933,0C18.337,22.596,19.226,22.419,19.329,22.93z"/>
		<path d="M37.2,22.775c0.27,0.363,0.302,1.341,0.156,1.865C37.153,24.168,37.389,23.259,37.2,22.775z"/>
		<path d="M37.978,22.853c0.144-0.189,0.053,0.511,0.078,0.7C37.911,23.741,38.002,23.04,37.978,22.853z"/>
		<path d="M42.173,22.853c0.343,0.123,0.066,0.866,0.156,1.244C42.15,24.402,42.351,23.057,42.173,22.853z"/>
		<path d="M36.656,23.164c0.193,0.146,0.086,1.259,0.233,1.71C36.522,24.589,36.807,23.801,36.656,23.164z"/>
		<path fill="#FFFFFF" d="M49.633,23.63c-1.068-0.052-2.202,0.001-3.419,0c0-0.052,0-0.104,0-0.156
			c-0.013-0.091,0.017-0.138,0.078-0.155c0.645,0.019,1.327-0.026,1.942,0C48.761,23.342,49.487,23.244,49.633,23.63z"/>
		<path fill="#FFFFFF" d="M21.272,23.63c-1.278,0.625-3.664,0.224-5.362,0.388c0.5-0.554,1.653-0.311,2.564-0.311
			C19.429,23.708,20.45,23.603,21.272,23.63z"/>
		<path d="M38.133,25.415c-0.225-0.197,0.003-1.147-0.078-1.708C38.236,24.123,38.082,24.873,38.133,25.415z"/>
		<path d="M38.521,23.708c0.175,0.447,0.263,0.98,0.233,1.632C38.587,25.015,38.632,24.287,38.521,23.708z"/>
		<path fill="#FFFFFF" d="M46.68,24.483c-0.499,0.029-0.419-0.562-0.622-0.621c0.583-0.347,1.646-0.1,2.486-0.078
			c0.494,0.014,1.146-0.224,1.321,0.157c-1.214,0.002-2.468-0.034-3.574,0.077c0.821,0.297,2.69-0.176,3.574,0.155
			c-0.763,0.433-2.115-0.058-3.108,0.233c0.88,0.024,1.897,0.095,3.108,0.076c-0.835,0.5-2.706,0.154-3.807,0.157
			c0.909,0.358,2.484,0.054,3.652,0.154c-1.491,0.428-3.985,0.222-6.216,0.311c-0.149,0.033-0.281-0.053-0.156-0.077
			c0.906-0.002,1.473-0.342,2.487-0.233C46.068,24.504,46.149,24.355,46.68,24.483z"/>
		<path d="M40.075,24.328c0.115,0.222,0.203,1.081-0.155,1.087C39.93,25.014,40.064,24.732,40.075,24.328z"/>
		<path fill="#FFFFFF" d="M19.096,24.407c-0.641,0.527-2.353,0.125-3.264,0.233C16.562,24.229,18.163,24.638,19.096,24.407z"/>
		<path fill="#FFFFFF" d="M16.065,24.874c0.519-0.182,1.372-0.028,2.02-0.079C17.764,25.214,16.622,25.084,16.065,24.874z"/>
		<path fill="#FFFFFF" d="M17.387,25.105c-0.104,0.259-0.453,0.272-0.699,0.389c0.066-0.136,0.289-0.27-0.078-0.233
			C16.795,25.021,17.047,25.236,17.387,25.105z"/>
		<path fill="#FFFFFF" d="M49.478,25.105c-0.304,0.442-0.928,0.212-1.398,0.234c-1.868,0.084-4.232,0.207-6.061,0.233
			c0.469-0.386,1.276-0.378,2.175-0.39C46.003,25.162,48.165,25.171,49.478,25.105z"/>
		<path fill="#FFFFFF" d="M15.445,27.67c0.546,0.127,0.896,0.45,1.397,0.621C16.435,28.337,15.711,28.025,15.445,27.67z"/>
		<path fill="#FFFFFF" d="M19.795,29.689c-0.804-0.026-1.616-0.455-1.943-0.7C18.269,29.15,19.812,29.082,19.795,29.689z"/>
		<path fill="#FFFFFF" d="M21.894,29.689c0.142-0.138,0.583,0.086,0.854,0.078C22.571,29.939,21.987,29.857,21.894,29.689z"/>
		<path fill="#FFFFFF" d="M21.97,30.234c-0.46-0.059-0.876-0.158-1.398-0.156C20.835,29.734,21.798,29.975,21.97,30.234z"/>
		<path d="M45.67,15.782c-0.09,0.36,0.893,0.523,0.622,1.088c0.192,0.119,0.484,0.138,0.544,0.389
			c0.074,0.282-0.336,0.078-0.389,0.233c-0.269,1.007-0.613,3.607-0.156,4.507c0.099,0.197,0.342,0.029,0,0.232
			c0.394,0.238,0.922-0.06,1.398,0c-0.545-0.175-0.57-0.404-1.321-0.388c0.219-0.134,0.181-0.096,0.233-0.311
			c2.213,0.184,4.36,1.289,3.574,3.883c-0.185,0.61-0.969,1.694-1.71,2.255c-0.76,0.573-2.79,1.286-3.884,1.633
			c-1.797,0.566-4.638,0.934-6.838,1.088c-3.449,0.241-7.885,0.504-10.412,0c-0.067,0.27-0.353,0.32-0.466,0.541
			c-1.646,0.762-3.844-0.209-5.906-0.386c-1.759-0.151-2.723-1.188-4.74-1.557c-0.257-0.044-0.61-0.499-0.932-0.544
			c-0.265-0.733-0.479-1.885-0.388-2.717c0.282-0.027,0.463-0.16,0.698-0.233c-0.159-0.763-0.304-2.208,0.233-1.865
			c-0.125-0.395,0.703-0.875,1.322-1.01c-0.181,0.182-0.256,0.47-0.622,0.466c2.148,0.306,4.791,0.029,7.381,0
			c0.61-0.032,0.255,0.139-0.155,0.077c-0.241-0.026-0.372,0.181-0.543,0c-1.88,1.23-4.43,1.785-6.76,2.565
			c-0.643-0.294-1.448,0.127-1.166,0.775c1.708,1.191,3.558,2.242,5.75,2.952c-0.38-0.009-0.82,0.04-1.088-0.078
			c0.381,0.488,1.277,0.31,1.708,0.233c-0.032-0.174-0.412-0.002-0.466-0.155c1.977-0.343,4.179,0.791,5.906,0
			c0.035,0.373-0.21,0.462-0.467,0.544c0.005,0.229,0.178,0.29,0.312,0.389c0.169-0.011,0.166-0.195,0.155-0.389
			c0.106-0.247,0.077,0.275,0.078,0.389c1.044-1.139,3.4-2.096,4.35-2.562c0.271-0.393,0.557-0.45,1.166-0.776
			c0.021-0.306,0.054-0.551,0.078-1.012c2.617,1.036,5.194,2.11,7.771,3.187c0.163-0.656-0.219-1.438-0.233-2.175
			c-5.464-2.515-11.385-4.57-16.861-7.072c5.495,2.172,11.4,4.606,17.017,6.917c-5.405-2.6-11.372-4.635-16.939-7.071
			c-0.063,0.041-0.127,0.081-0.233,0.077c-0.077,0.686,0.233,1.356,0,1.943c0.917,0.799,3.078,1.454,4.429,2.02
			c1.42,0.596,2.764,1.347,4.04,1.633c0.351,0.078,0.938-0.138,1.088,0.389c-0.364,0.116-1.888-0.484-1.632-0.389
			c-1.861-0.688-5.18-0.899-7.536-1.942c0.228-0.274,0.465,0.098,0.699,0.077c0.12-0.031-0.185-0.824,0.155-0.855
			c-0.75-0.691-2.319-0.1-3.651-0.233c-0.435,0.017-0.093-0.138,0.155-0.078c0.207,0,0.414,0,0.621,0
			c0.516-0.157,1.305-0.043,1.943-0.078c0.028-0.443-1.036-0.465-1.476-0.699c0.492-0.67,0.206-1.692,0.699-2.409
			c0.231,0.668-0.505,1.436-0.078,2.099c0.02-0.484,0.058-1.451,0.623-1.633c-0.045-0.24-0.365-0.204-0.391-0.466
			c0.374-0.036,0.512,0.164,0.701,0.312c3.985,1.629,7.984,3.326,12.043,4.972c1.328,0.538,2.624,1.236,4.04,1.476
			c-0.242,0.012-0.384-0.139-0.621-0.311c0.008-0.219,0.724,0.106,0.311,0.076c0.387,0.074,0.788-0.506,1.088-0.776
			c0.16,0.021,0.019,0.345,0.232,0.312c0.54-1.398-0.345-3.69-0.31-5.284c-0.731,0.009-0.215,0.835-0.389,1.322
			c-0.104-0.025-0.064-0.195-0.077-0.312c-0.335,0.106-0.035,0.494-0.078,0.777c-0.318-0.437,0.012-1.044-0.156-1.631
			c-0.523-0.083-0.727,0.153-1.165,0.155c0.292,0.732,0.275,2.013,0.077,2.72c-0.173-0.034-0.031-0.384-0.077-0.544
			c0.298,0.68,0.013-0.352,0.077-0.777c-0.099,1.021-0.421-1.132-0.543-1.399c1.193-0.159,2.564-0.6,3.574-1.01
			c0.751,0.13,0.751,1.01,0.778,1.864c-0.139,0.208-0.057-0.455-0.078-0.621c-0.278,0.498,0.174,1.727-0.233,2.097
			c0.164-0.896,0.11-2.227-0.156-2.953c-0.351,0.666-0.133,1.507-0.311,2.409c-0.18-0.389-0.027-1.112-0.078-1.631
			c-0.228,0.134,0.073,0.798-0.156,0.933c0-0.337,0-0.673,0-1.01c-0.023-0.182-0.151-0.32,0-0.466c-0.137-0.145-0.198,0.063-0.465,0
			c0.054,0.31,0.195,0.528,0.156,0.932c-0.257-0.137,0.023-0.329-0.233-0.466c-0.128,0.203-0.014,0.336-0.079,0.699
			c-0.185,0.18,0.029-0.699-0.155-0.777c-0.237,1.455,0.713,3.18,0.311,4.739c1.096-0.392,0.371-2.497,0.311-3.574
			c0.395,1.115,0.479,2.422,0.311,3.263c0.424,0.035,0.12-0.656,0.544-0.621c-0.038,0.245,0.14,0.274,0.078,0.544
			c0.22-0.015,0.324-0.144,0.544-0.155c-0.014-0.22-0.369-0.098-0.311-0.389c0.131-0.028,0.146,0.061,0.155,0.154
			c0.083-0.468,0.178-1.208,0.078-1.941c0.065-0.247,0.102,0.138,0.078,0.233c0.111,0.447,0.138,1.344,0,1.787
			c0.212-0.115,0.305-0.347,0.233-0.545c0.251-0.069,0.109,0.254,0.233,0.312c0.285-0.594,0.2-1.015,0.155-1.709
			c0.261,0.406,0.106,1.02,0.078,1.554c0.07,0.21,0.188-0.165,0.233-0.234c0.316,0.346-0.227,0.495-0.466,0.543
			c0.418,0.285,0.714-0.217,0.855-0.466c-0.034-0.115-0.1,0.032-0.233,0c0.248-0.22,0.061-1.284,0.233-1.32
			c-0.028,0.571,0.02,1.067,0.077,1.554c0.645-0.345,0.296-2.508,0.312-3.264c0.001-0.081-0.181-0.331,0.078-0.079
			c0.012,1.104,0.294,2.347-0.078,3.187c0.31,0.076,0.234-0.233,0.543-0.157c-0.014-0.09-0.142-0.065-0.232-0.077
			c0.187-0.197,0.017-0.378,0.077-0.854c0.081-0.642,0.282-2.152,0.232-0.778c0.081,0.205,0.094,0.477,0.078,0.778
			c-0.026,0.182-0.093,0.32-0.155,0.466c0.214-0.188,0.177-0.123,0.311,0.079c0.228-0.576-0.071-1.678,0.155-2.254
			c-0.045-0.222,0.057-0.839,0.078-0.311c0.03,0.859-0.139,1.519-0.078,2.409c0.697-1.251-0.07-3.576,0.389-5.128
			c0.009-0.333-0.698,0.221-0.544-0.389c-0.293,0.017-0.222,0.399-0.466,0.466c-0.238,0.004-0.396-0.07-0.466-0.233
			c-0.186,0.36-0.98,0.52-1.321,0.466c-0.887,0.952-2.76,0.917-4.429,1.088c-0.331,0.265-0.625,0.566-1.243,0.543
			c-0.01-0.192-0.012-0.375,0.078-0.465c-0.561,0.088-0.676,0.332-1.088,0.232c-0.125,0.108-0.083,0.383-0.234,0.466
			c-0.279,0.021-0.284-0.233-0.544-0.233c-0.067,0.362-0.544,0.488-0.699,0.932c-0.111,0.319,0.087,0.799-0.077,1.243
			c-0.302,0.815,0.101-0.299-0.078-0.388c-0.195-0.097,0.004,0.562,0,0.622c-0.034,0.48-0.312,1.149-0.156,1.398
			c-0.333-0.815,0.156-1.643-0.077-2.485c0.136,0.068,0.128,0.343,0.311,0.154c0.018-0.239,0.066-0.834,0.077-1.01
			c-0.153,0.414-0.208-0.387-0.232,0.155c-0.227-0.225,0.12-0.757,0.311-0.389c-0.464-0.291,0.365-0.469,0.154-0.698
			c0.012-0.194,0.263-0.024,0.312,0c0.166-0.098-0.194-0.319-0.156-0.544c0.126-0.117,0.574-0.117,0.7,0
			c-0.025,0.389-0.501,0.328-0.466,0.777c0.374-0.066,0.309-0.572,0.777-0.544c-0.097,0.33,0.258,0.208,0.311,0.389
			c0.042-0.083,0.082-0.37,0.077-0.7c0.235-0.078,0.138,0.173,0.156,0.311c0.168,0.014,0.035-0.275,0.077-0.389
			c0.172,0.458,0.128,0.186,0.39,0c0,0.104,0,0.208,0,0.311c0.091-0.013,0.065-0.142,0.078-0.233
			c0.299,0.031-0.075,0.428,0.467,0.311c0.046-0.101,0.058-0.581,0.232-0.776c0.175,0.058,0.03,0.435,0.078,0.622
			c0.121-0.113,0.164-0.303,0.156-0.543c0.12-0.238,0.067,0.337,0.078,0.466c0.179-0.08,0.161-0.357,0.155-0.622
			c0.235-0.079,0.137,0.173,0.155,0.312c0.059-0.123,0.246-0.118,0.233-0.312c0.228,0.066-0.101,0.196,0,0.389
			c0.09-0.143,0.297-0.17,0.389-0.311c-0.033-0.263-0.302,0.207-0.233-0.156c0.243,0.04,0.346-0.213,0.311,0.156
			c0.115-0.066,0.167-0.196,0.155-0.389c0.218,0.079-0.021,0.33,0,0.467c0.232-0.002,0.101-0.367,0.234-0.467
			c0.227,0.065-0.048,0.25,0,0.389c0.26,0.079,0.121-0.242,0.155-0.389c0.253,0.133,0.105,0.438,0.077,0.7
			c0.263-0.204,0.296-0.638,0.545-0.855c0.17,0.009,0.032,0.33,0.077,0.466c0.129-0.079,0.085-0.33,0.155-0.466
			c0.246,0.107-0.106,0.383,0.079,0.466c0.115-0.118,0.125-0.341,0.155-0.544c0.173,0.033,0.06,0.412,0,0.466
			c0.137-0.019,0.177-0.134,0.155-0.311c0.209,0.239,0.201,0.226,0.233,0.545c0.237-0.076,0.17-0.453,0.312-0.622
			c0.174,0.032,0.062,0.412,0,0.466c0.137-0.019,0.177-0.133,0.155-0.311c0.091,0.013,0.066,0.142,0.078,0.233
			c0.105-0.051,0.145-0.166,0.156-0.311c0.227,0.109-0.138,0.268-0.079,0.467c0.137-0.202,0.402-0.273,0.467-0.544
			c0.091,0.012,0.065,0.142,0.078,0.233c0.112-0.095,0.118-0.297,0.233-0.389c0.228,0.066-0.047,0.25,0,0.389
			c0.167-0.065,0.125-0.341,0.233-0.466c0.105,0.015,0.145,0.323,0.156,0c0.102,0.125,0.333,0.291,0.155,0.466
			c0.414-0.001,0.249-0.581,0.389-0.855c0.172,0.01,0.034,0.33,0.078,0.466c0.115,0.003,0.112-0.462,0.156-0.078
			c0.168,0.013,0.035-0.275,0.078-0.389c0.166,0.092,0.181,0.336,0.311,0.466c0.229-0.081,0.153-0.468,0.389-0.543
			c0.377-0.016,0.69,0.034,0.621,0.466c0.331-0.1-0.008-0.387,0.078-0.699c0.242-0.043,0.507-0.064,0.7-0.156
			c-0.079-0.102-0.076-0.286-0.155-0.388c-0.079,0.05-0.08,0.178-0.233,0.155c-0.672-1.116-1.926-1.649-3.264-2.099
			c0.423-0.266-0.32-0.036-0.077-0.155c-0.172-0.32,0.618,0.066,0.621,0.311c0.606,0.092,1.028,0.37,1.477,0.622
			c-0.993-0.769-2.184-1.339-3.652-1.632c0.233,0.336,0.912,0.228,1.243,0.466c0.148,0.141-0.624-0.156-1.01-0.234
			c-0.517-0.103-1.062-0.097-1.399-0.232c-0.088,0.015-0.042,0.078,0,0.078c-0.271,0.087-0.851-0.183-1.243-0.233
			c0.297,0.299,0.932,0.26,1.322,0.466c0.121-0.026-0.069-0.137,0.077-0.155c0.632,0.066,0.934,0.465,1.631,0.466
			c-0.1,0.307,0.227,0.188,0.233,0.389c1.565,0.247,2.922,0.705,3.419,2.021c-0.782-0.678-1.945-1.361-3.109-1.399
			c0.064-0.297-0.374-0.092-0.31-0.389c0.603,0.122,1.143,0.309,1.631,0.543c-0.269-0.544-1.887-0.681-2.02-0.621
			c-0.323-0.011-0.016-0.052,0-0.156c-0.273-0.141-0.584-0.244-0.854-0.389c-0.196,0.033,0.128,0.167,0.232,0.156
			c-1.823,0.213-3.918-0.636-5.827-0.855c1.175,0.456,2.795,0.469,3.652,1.244c-0.32-0.108-0.635-0.414-1.01-0.232
			c-0.004-0.052,0.104-0.093,0.155-0.079c-1.105-0.292-2.941-0.441-4.429-0.699c1.027,0.293,2.192,0.449,3.031,0.932
			c-0.235,0.051-0.849-0.185-1.244-0.233c0.096,0.681,0.936,0.619,1.476,0.855c-1.178-0.18-1.879-0.262-3.184-0.467
			c-0.019-0.003,0.107-0.081,0.155-0.077c-0.303-0.019-0.994-0.102-1.322-0.156c0.53,0.194,1.051,0.402,1.633,0.544
			c-0.626,0.235-1.345-0.106-1.942-0.156c0.012-0.091,0.141-0.065,0.233-0.078c-0.119-0.235-0.342,0.063-0.545,0
			c0.012-0.091,0.142-0.066,0.233-0.078c-0.75-0.316-1.989-0.412-2.875-0.155c1.321,0.182,2.913,0.092,3.574,0.932
			c-1.43-0.047-3.251-0.789-4.972-0.543c1.125-0.045,2.769,0.424,3.729,0.543c-0.892,0.345-1.904-0.457-3.108-0.31
			c0.013,0.09,0.143,0.065,0.234,0.077c-0.288,0.188-0.986-0.228-1.321,0c1.55,0.326,3.17,0.293,4.584,0.854
			c0.426,0.165-0.412-0.084-0.777-0.154c-0.385-0.074-0.818-0.043-1.011-0.156c0.087,0.373,2.683,0.619,1.321,0.467
			c-0.888-0.101-2.045-0.189-3.03-0.311c0.059-0.175,0.437-0.031,0.622-0.078c-0.405-0.347-1.31-0.193-1.864-0.389
			c-0.029,0.133,0.06,0.147,0.155,0.155c-0.223,0.091-0.745-0.186-1.244-0.078c1.254,0.203,1.724,0.366,3.031,0.622
			c-0.436,0.148-1.179-0.064-1.477-0.311c-0.024,0.256-1.919-0.471-2.72-0.078c-0.317,0.157-0.235,0.456-0.544,0.777
			c0.116,0.403,0.314,0.722,0.544,1.01c-0.339,0.411,0.046,1.548-0.311,1.942c-0.266-0.378-0.344-1.245-0.078-1.786
			c-0.429-0.142-0.396-0.744-0.621-1.088c1.276-1.98,6.656-3.107,10.568-3.575c1.839-0.219,3.952-0.181,5.904,0
			c1.346,0.126,2.755,0.762,3.963,1.244c1.397,0.558,2.618,1.006,2.875,2.487c-0.07,0.047-0.139,0.094-0.157,0
			C46.417,16.64,46.239,16.015,45.67,15.782z M46.292,22.542c0.503,0.166,1.332-0.012,1.787-0.155
			C47.596,22.257,46.645,22.288,46.292,22.542z M46.292,22.697c0.048,0.302,0.063,0.32-0.078,0.545
			c1.131-0.017,2.339-0.077,3.264-0.078c-0.345-0.354-1.269-0.13-1.787-0.311c0.329-0.06,0.919,0.144,1.01-0.156
			C48.034,22.462,47.166,22.707,46.292,22.697z M38.366,13.606c-0.367-0.056-0.839,0.082-0.233,0.078
			c0.49,0.107,1.117,0.489,1.554,0.389C39.485,14.052,38.713,13.659,38.366,13.606z M40.542,14.228
			c0.432,0.061,0.87,0.527,1.165,0.466C41.446,14.461,40.845,14.16,40.542,14.228z M38.521,14.15
			c-0.494-0.025-1.057-0.391-1.476-0.234C37.569,13.914,38.055,14.357,38.521,14.15z M37.356,14.461
			c-0.526-0.227-1.938-0.651-2.797-0.545C35.575,14.016,36.393,14.311,37.356,14.461z M33.005,14.618
			c-0.763-0.125-2.134-0.45-2.72-0.234c0.116,0.013,0.287-0.028,0.311,0.078c-0.103-0.01-0.562-0.012-0.311,0.077
			c0.709-0.062,1.433,0.276,1.866,0.233c-0.221-0.221-0.777-0.104-1.011-0.311C31.766,14.456,32.509,14.748,33.005,14.618z
			 M35.258,14.384c-1.136-0.146-2.369-0.517-3.34-0.311c1.146-0.059,2.112,0.476,2.874,0.545c-0.31-0.234-0.871-0.22-1.165-0.467
			C34.123,14.225,34.771,14.557,35.258,14.384z M34.481,14.772c-0.769-0.294-1.851-0.686-2.797-0.544
			C32.728,14.245,33.752,14.698,34.481,14.772z M27.876,15.005c1.199-0.138,2.161,0.377,3.108,0.233
			C30.008,15.192,28.79,14.6,27.876,15.005z M26.011,15.627c0.212-0.048,0.617,0.098,0.7-0.078
			C26.503,15.467,26.114,15.403,26.011,15.627z M23.136,21.532c-0.046-0.16,0.096-0.51-0.078-0.544
			C22.954,21.093,22.91,21.531,23.136,21.532z M48.234,23.319c-0.615-0.026-1.297,0.019-1.942,0
			c-0.061,0.017-0.091,0.064-0.078,0.155c0,0.052,0,0.104,0,0.156c1.217,0.001,2.351-0.052,3.419,0
			C49.487,23.244,48.761,23.342,48.234,23.319z M45.825,24.795c-1.014-0.108-1.581,0.231-2.487,0.233
			c-0.125,0.024,0.006,0.11,0.156,0.077c2.231-0.089,4.726,0.117,6.216-0.311c-1.168-0.101-2.743,0.204-3.652-0.154
			c1.101-0.003,2.972,0.343,3.807-0.157c-1.21,0.019-2.228-0.052-3.108-0.076c0.993-0.291,2.345,0.199,3.108-0.233
			c-0.884-0.331-2.753,0.142-3.574-0.155c1.106-0.111,2.36-0.075,3.574-0.077c-0.174-0.38-0.827-0.143-1.321-0.157
			c-0.841-0.022-1.903-0.27-2.486,0.078c0.203,0.06,0.123,0.65,0.622,0.621C46.149,24.355,46.068,24.504,45.825,24.795z
			 M44.193,25.184c-0.899,0.012-1.706,0.004-2.175,0.39c1.829-0.026,4.193-0.149,6.061-0.233c0.471-0.022,1.095,0.208,1.398-0.234
			C48.165,25.171,46.003,25.162,44.193,25.184z M40.23,25.729c0.334-0.002,0.573-0.103,0.777-0.233
			C40.712,25.536,40.452,25.609,40.23,25.729z M41.008,25.961c-0.199,0.266-0.768,0.164-1.088,0.311
			c0.623,0.223,1.653-0.203,2.331,0.078c-0.655-0.027-1.549,0.012-1.786,0.155c0.716,0.269,0.044,2.336,0.388,2.72
			c-0.429-1.4,1.733-0.646,2.253-1.166c-0.797-0.097-1.573,0.239-2.253,0c1.14-0.076,2.467,0.033,3.341-0.31
			c-1.123-0.062-2.448,0.09-3.341,0c1.258-0.192,3.01,0.108,4.041-0.312c-1.464-0.082-2.712,0.066-4.041-0.078
			c1.641-0.178,3.92,0.152,5.051-0.311c-1.751-0.17-3.28,0.09-5.051-0.08c1.685-0.281,4.894,0.213,6.138-0.388
			c-1.925-0.062-3.978,0.2-6.06,0c1.852-0.116,4.067,0.049,5.75,0c0.452-0.015,0.969-0.06,1.243-0.388
			c-1.741,0.176-3.7,0.199-5.439,0c2.289-0.146,5.248,0.377,6.604-0.7c-1.684-0.085-3.41,0.071-4.739,0.155
			c-1.139,0.07-2.229-0.068-3.108,0.233c2.65,0.147,5.331-0.272,7.459-0.155C45.969,25.871,43.602,26.17,41.008,25.961z
			 M34.559,27.05c-0.102-0.011-0.562-0.013-0.31,0.077c0.33-0.1,0.464,0.086,0.698-0.077c-0.744-0.239-1.377-0.595-2.098-0.854
			c0,0.231,0,0.467,0,0.699C33.178,26.461,34.034,26.959,34.559,27.05z M31.373,28.215c2.072-0.054,4.352,0.104,6.294-0.079
			c-1.403-0.538-3.872-0.014-5.516-0.31c1.395-0.086,3.196,0.007,4.583-0.077c-0.585-0.091-1.103-0.616-1.709-0.233
			c0.236,0.049,0.669-0.101,0.777,0.076c-1.159,0.037-1.9-0.002-2.953-0.154c0.161-0.047,0.511,0.095,0.544-0.078
			C32.638,27.093,32.064,27.943,31.373,28.215z M30.984,28.291c-0.304,0.215-0.726,0.312-1.01,0.544
			c0.416,0.051,1.036-0.103,1.321,0.077c-0.669,0.033-1.498-0.098-1.942,0.158c-0.08,0.203-0.094,0.477-0.077,0.775
			c-0.138-0.836,0.664-0.658,1.475-0.621c1.441,0.065,4.118-0.029,5.051-0.235c-1.372-0.05-2.953,0.104-4.195-0.077
			c2.494-0.068,5.285,0.158,7.537-0.154c-2.887-0.354-5.702,0.123-8.548-0.232c2.722-0.028,5.209,0.189,7.848-0.078
			C36.253,28.1,33.429,28.386,30.984,28.291z M29.896,24.949c-1.771-0.638-3.559-1.671-5.283-2.096
			c0.23,0.185,0.301,0.528,0.311,0.932C26.813,23.89,28.23,24.882,29.896,24.949z M16.065,23.553c1.887,0.088,4.661,0.2,6.294-0.312
			c-2.153,0.177-4.289-0.031-6.216,0.156c-0.042-0.112,0.304-0.191,0.078-0.234C16.2,23.28,15.887,23.492,16.065,23.553z
			 M18.475,23.708c-0.911,0-2.065-0.243-2.564,0.311c1.698-0.164,4.084,0.236,5.362-0.388C20.45,23.603,19.429,23.708,18.475,23.708
			z M20.495,24.019c-0.874,0.032-1.667,0.041-2.487,0.078c-0.815,0.035-1.726-0.22-2.254,0.231
			C17.465,24.164,19.888,24.678,20.495,24.019z M15.832,24.641c0.911-0.108,2.623,0.294,3.264-0.233
			C18.163,24.638,16.562,24.229,15.832,24.641z M18.085,24.795c-0.648,0.051-1.501-0.103-2.02,0.079
			C16.622,25.084,17.764,25.214,18.085,24.795z M16.61,25.261c0.367-0.036,0.144,0.098,0.078,0.233
			c0.247-0.116,0.595-0.13,0.699-0.389C17.047,25.236,16.795,25.021,16.61,25.261z M16.842,28.291
			c-0.501-0.171-0.851-0.494-1.397-0.621C15.711,28.025,16.435,28.337,16.842,28.291z M17.852,28.989
			c0.327,0.245,1.14,0.674,1.943,0.7C19.812,29.082,18.269,29.15,17.852,28.989z M22.748,29.77
			c-0.271,0.008-0.713-0.217-0.854-0.078C21.987,29.857,22.571,29.939,22.748,29.77z M20.572,30.078
			c0.521-0.002,0.938,0.099,1.398,0.156C21.798,29.975,20.835,29.734,20.572,30.078z"/>
		<path d="M41.164,14.694c-0.479,0.324,0.936,0.49,1.166,0.854c0.108-0.028,0.006-0.136-0.078-0.155
			c0.584,0.115,1.646,0.426,1.709,1.321c-0.069,0.034-0.139,0.067-0.155,0.154c-0.989-0.27-2.04-1.356-2.797-1.709
			c-0.411-0.191-0.541,0.041,0-0.078c0.655,0.226,1.094,0.667,1.709,0.932c-0.309-0.511-1.533-0.829-2.021-1.321
			C40.792,14.458,40.964,14.779,41.164,14.694z"/>
		<path d="M43.105,16.715c-0.112,0.337-0.48,0.021-0.621-0.078c-0.043,0.218,0.16,0.438-0.078,0.776
			c-0.589-0.263-0.585-0.886-0.932-1.32c-0.279-0.349-0.83-0.422-0.854-0.699c-0.388,0.136-0.454-0.323-1.089-0.311
			C40.839,15.2,42.183,15.954,43.105,16.715z"/>
		<path d="M30.674,27.359c0.103,0.195,0.255-0.203,0.466-0.156c-0.348,0.472-0.937,0.289-1.399,0.699
			c0.519,0.154,0.951-0.445,1.632-0.389c-0.197,0.065-0.538,0.389-0.699,0.234c-0.33,0.59-1.593,0.884-2.098,1.553
			c-0.139-0.058-0.011-0.142,0-0.23c-0.236,0.15-0.468,0.307-0.7,0.466c-0.203-0.083-0.254-0.317-0.232-0.624
			c-0.137,0.021-0.178,0.136-0.156,0.312c-0.222-0.106-0.217-0.437-0.156-0.623c1.529-0.982,3.502-1.522,5.128-2.408
			C32.331,26.739,31.189,26.943,30.674,27.359z M29.896,28.215c0.192-0.048,0.603-0.271,0.466-0.389
			C30.286,28.033,29.89,27.921,29.896,28.215z M27.799,28.758c0.657-0.043,1.348-0.465,1.476-0.775
			C28.83,28.287,28.262,28.471,27.799,28.758z"/>
		<path fill="#FFFFFF" d="M41.707,14.694c-0.295,0.061-0.733-0.405-1.165-0.466C40.845,14.16,41.446,14.461,41.707,14.694z"/>
		<path fill="#FFFFFF" d="M34.559,13.917c0.86-0.106,2.271,0.318,2.797,0.545C36.393,14.311,35.575,14.016,34.559,13.917z"/>
		<path fill="#FFFFFF" d="M31.14,14.461c0.234,0.206,0.791,0.09,1.011,0.311c-0.433,0.042-1.157-0.295-1.866-0.233
			c-0.252-0.089,0.208-0.087,0.311-0.077c-0.023-0.105-0.195-0.065-0.311-0.078c0.586-0.216,1.957,0.109,2.72,0.234
			C32.509,14.748,31.766,14.456,31.14,14.461z"/>
		<path fill="#FFFFFF" d="M33.626,14.15c0.294,0.248,0.855,0.233,1.165,0.467c-0.762-0.069-1.728-0.604-2.874-0.545
			c0.971-0.206,2.204,0.165,3.34,0.311C34.771,14.557,34.123,14.225,33.626,14.15z"/>
		<path d="M42.484,14.539c-0.464,0.125-0.935-0.412-1.477-0.466C41.207,13.914,42.057,14.41,42.484,14.539z"/>
		<path d="M40.153,17.725c-0.468-1.37-1.134-1.464-2.098-2.021c0.421-0.109,0.923,0.371,1.322,0.544
			c-0.312-0.57-1.573-0.863-2.487-1.088c0.482-0.246,1.122,0.43,1.554,0.233c0.088,0.014,0.043,0.078,0,0.077
			C39.5,15.544,41.312,16.562,40.153,17.725z M38.833,15.704c0.222,0.041,0.52,0.407,0.699,0.233
			C39.309,15.897,39.011,15.53,38.833,15.704z"/>
		<path d="M40.931,16.249c-0.013-0.09,0.016-0.138,0.077-0.155c-0.133-0.1-0.395-0.037-0.311-0.234
			c-0.14-0.009-0.164,0.095-0.31,0.078c0.036-0.375-0.64-0.425-1.088-0.543c1.292-0.072,2.598,0.921,2.486,2.252
			c-0.451-0.792-1.041-1.445-1.941-1.787C40.155,15.73,40.566,16.17,40.931,16.249z"/>
		<path d="M34.326,15.549c0.221-0.24,0.481,0.136,0.776,0.078C34.919,15.83,34.612,15.5,34.326,15.549z"/>
		<path d="M35.802,15.627c0.624-0.074,1.741,0.69,2.564,0.932c-0.448-0.407-1.125-0.585-1.71-0.854
			c-0.139,0.022-0.159-0.073-0.079-0.077c0.941,0.277,1.87,0.566,2.488,1.165c0.104,0,0.208,0,0.312,0
			c0.077,0.285,0.285,0.439,0.31,0.776c-0.167,0.119-0.231,0.338-0.543,0.312c0.393-0.199,0-0.493-0.078-0.854
			c-0.327,0.173,0.296,0.621-0.078,0.933c-0.233-0.699-0.706-1.16-1.399-1.399c0.051-0.232,0.167,0.075,0.312,0
			c-0.11-0.191-0.268-0.137-0.467-0.077C37.376,16.011,36.339,15.875,35.802,15.627z"/>
		<path d="M36.035,15.937c-0.002-0.075-0.095-0.06-0.156-0.078c-0.137-0.195,0.39,0.07,0.544,0.078
			c-0.02,0.137-0.134,0.178-0.312,0.156c0.002-0.077,0.096-0.062,0.156-0.078c-0.018-0.099-0.232-0.102-0.233,0
			C35.947,16,35.991,15.937,36.035,15.937z"/>
		<path d="M36.346,16.171c0.247-0.376,0.702,0.174,1.088,0.154c-0.218,0.214-0.484-0.185-0.777-0.154
			c0.54,0.625,1.633,0.697,1.71,1.787c-0.318,0.07-0.457,0.32-0.777,0.388c0.182-0.343-0.19-0.51-0.233-0.854
			c-0.101,0.135-0.006,0.581-0.311,0.699c-0.427-0.556-0.887-1.083-1.554-1.399c0.2-0.12,0.525,0.301,0.776,0.389
			c0.136-0.117-0.275-0.343-0.466-0.389c0.259-0.024,0.918,0.219,1.165,0.467c0.309-0.025-0.056-0.241,0.156-0.311
			c-0.267-0.2-0.578-0.354-0.933-0.466c0.244-0.164,0.56,0.266,0.933,0.233c-0.468-0.388-1.29-0.422-1.709-0.856
			c0.391,0.205,0.868,0.325,1.243,0.544C36.547,16.271,36.742,16.001,36.346,16.171z"/>
		<path d="M36.346,16.792c-0.347-0.017-0.896-0.502-1.399-0.621C35.101,16.083,36.053,16.505,36.346,16.792z"/>
		<path d="M37.356,15.627c0.161-0.145,0.95,0.385,1.398,0.466C38.339,16.195,37.837,15.717,37.356,15.627z"/>
		<path d="M36.346,18.502c-0.242-0.043-0.118-0.451-0.233-0.622c-0.208-0.054-0.15,0.162-0.233,0.233
			c-0.172-0.062-0.194-0.271-0.311-0.389c-0.79,0.238-1.425-0.933-2.331-1.087c0.422-0.059,1.033,0.364,1.554,0.466
			c0.153-0.084-0.23-0.281-0.389-0.312c0.29-0.161,0.598,0.394,0.855,0.312c-0.647-0.545-1.581-0.803-2.409-1.167
			c0.443-0.098,1.323,0.692,2.176,0.7C35.489,17.189,36.567,17.522,36.346,18.502z"/>
		<path d="M34.559,17.88c-0.441-0.414-0.961-0.748-1.554-1.01c0.609-0.012,1.326,0.537,1.865,0.855
			c-0.269,0.5,0.207,0.863,0.31,1.243c-0.646-1.01-1.654-1.659-2.796-2.175C33.138,16.814,33.819,17.584,34.559,17.88z"/>
		<path d="M35.414,18.035c0.081-0.125,0.393,0.171,0.311,0.467C35.55,18.416,35.587,18.121,35.414,18.035z"/>
		<path d="M45.67,18.346c-0.148,0.603-0.036,1.467-0.156,2.098C45.583,20.225,45.121,18.48,45.67,18.346z"/>
		<path d="M44.893,19.201c-0.034-0.152-0.222,0.127-0.155-0.233c-0.646,0.766-0.452,1.951-0.465,3.264
			c-0.27-0.647-0.031-1.518-0.312-2.098c-0.336-0.052-0.209,0.36-0.233,0.621c-0.198-0.298,0.112-1.299-0.311-1.631
			c-0.317-0.085,0.011,0.477-0.388,0.31c0.018,1.424,0.211,2.759,0.078,3.73c0.004-1.283-0.428-2.747-0.311-3.651
			c-0.024-0.182-0.369-0.046-0.311-0.312c0.813-0.32,1.643-0.374,2.564-0.699c0.433,0.527,0.161,1.516,0.077,2.331
			c-0.336-0.356,0.063-1.2-0.077-1.866c-0.083,0.641-0.236,1.543-0.078,2.176c0,0.415,0,0.829,0,1.243
			c-0.179-0.21-0.028-0.75-0.078-1.088C44.688,20.633,44.953,19.959,44.893,19.201z M44.272,18.967
			c-0.237-0.004-0.303,0.164-0.468,0.233c0.005,0.514,0.073,0.964,0.389,1.166C44.344,19.865,44.323,19.562,44.272,18.967z"/>
		<path d="M43.727,20.91c-0.061,0.403-0.066,1.197,0,1.865c-0.447-0.459,0.22-2.033-0.544-2.175
			c-0.038-0.402,0.365-0.361,0.312-0.777C43.726,20.116,43.344,20.991,43.727,20.91z"/>
		<path d="M41.085,21.066c0.111-0.248,0.111,0.38,0,0.389c0.203,0.704,0.201,1.612,0.233,2.487c0.064,0.183-0.109,0.356-0.077,0.077
			c0-0.13-0.001-0.26,0-0.388c-0.169-0.532-0.001-1.399-0.156-1.943c-0.103-0.037-0.206-0.038-0.155-0.389
			C41.1,21.466,41.098,21.279,41.085,21.066z"/>
		<path d="M39.61,21.688c0.087,0.917,0.166,2.355,0.155,3.341C39.645,24.484,39.521,22.807,39.61,21.688z"/>
		<path d="M34.792,23.941c0.004-0.567-0.049-1.19,0.155-1.555c0.017-0.146-0.052-0.768,0.078-0.544
			c0.094,0.846-0.25,1.252-0.155,2.099C34.79,24.086,34.462,23.95,34.792,23.941z"/>
		<path fill="#FFFFFF" d="M24.924,23.785c-0.01-0.403-0.081-0.747-0.311-0.932c1.725,0.425,3.513,1.458,5.283,2.096
			C28.23,24.882,26.813,23.89,24.924,23.785z"/>
		<path fill="#FFFFFF" d="M16.221,23.164c0.226,0.043-0.119,0.122-0.078,0.234c1.928-0.187,4.063,0.021,6.216-0.156
			c-1.633,0.512-4.407,0.4-6.294,0.312C15.887,23.492,16.2,23.28,16.221,23.164z"/>
		<path d="M36.19,23.319c0.15-0.132,0.208,1.335,0.078,0.854C36.234,24.047,36.247,23.699,36.19,23.319z"/>
		<path fill="#FFFFFF" d="M15.754,24.328c0.528-0.452,1.439-0.196,2.254-0.231c0.82-0.037,1.613-0.046,2.487-0.078
			C19.888,24.678,17.465,24.164,15.754,24.328z"/>
		<path fill="#FFFFFF" d="M41.008,25.494c-0.205,0.132-0.443,0.23-0.777,0.234C40.452,25.609,40.712,25.536,41.008,25.494z"/>
		<path fill="#FFFFFF" d="M48.7,25.729c-2.128-0.117-4.809,0.305-7.459,0.155c0.879-0.303,1.969-0.163,3.108-0.233
			c1.329-0.084,3.055-0.24,4.739-0.155c-1.356,1.078-4.315,0.556-6.604,0.7c1.739,0.199,3.698,0.176,5.439,0
			c-0.274,0.328-0.791,0.373-1.243,0.388c-1.682,0.049-3.898-0.116-5.75,0c2.082,0.2,4.135-0.062,6.06,0
			c-1.245,0.601-4.454,0.106-6.138,0.388c1.771,0.17,3.3-0.09,5.051,0.08c-1.131,0.463-3.41,0.133-5.051,0.311
			c1.329,0.146,2.577-0.004,4.041,0.078c-1.031,0.42-2.783,0.117-4.041,0.312c0.893,0.09,2.218-0.062,3.341,0
			c-0.874,0.343-2.201,0.231-3.341,0.31c0.68,0.239,1.456-0.097,2.253,0c-0.52,0.521-2.682-0.234-2.253,1.166
			c-0.344-0.384,0.329-2.451-0.388-2.72c0.237-0.144,1.131-0.184,1.786-0.155c-0.678-0.281-1.708,0.145-2.331-0.078
			c0.32-0.146,0.889-0.045,1.088-0.311C43.602,26.17,45.969,25.871,48.7,25.729z"/>
		<path fill="#FFFFFF" d="M32.849,26.895c0-0.232,0-0.468,0-0.699c0.72,0.261,1.354,0.615,2.098,0.854
			c-0.234,0.163-0.368-0.022-0.698,0.077c-0.252-0.09,0.208-0.088,0.31-0.077C34.034,26.959,33.178,26.461,32.849,26.895z"/>
		<path fill="#FFFFFF" d="M30.362,27.826c0.137,0.115-0.274,0.341-0.466,0.389C29.89,27.921,30.286,28.033,30.362,27.826z"/>
		<path fill="#FFFFFF" d="M33.394,27.359c-0.034,0.172-0.383,0.031-0.544,0.078c1.052,0.151,1.793,0.19,2.953,0.153
			c-0.108-0.177-0.541-0.028-0.777-0.077c0.606-0.382,1.124,0.145,1.709,0.234c-1.387,0.084-3.188-0.01-4.583,0.077
			c1.645,0.296,4.113-0.229,5.516,0.31c-1.943,0.184-4.222,0.025-6.294,0.079C32.064,27.943,32.638,27.093,33.394,27.359z"/>
		<path fill="#FFFFFF" d="M29.274,27.98c-0.128,0.312-0.819,0.733-1.476,0.776C28.262,28.471,28.83,28.287,29.274,27.98z"/>
		<path fill="#FFFFFF" d="M38.444,28.445c-2.639,0.27-5.126,0.051-7.848,0.078c2.846,0.356,5.66-0.119,8.548,0.233
			c-2.252,0.312-5.042,0.086-7.538,0.154c1.243,0.181,2.823,0.028,4.196,0.077c-0.934,0.207-3.611,0.302-5.051,0.234
			c-0.812-0.037-1.613-0.214-1.476,0.621c-0.016-0.299-0.002-0.572,0.078-0.775c0.444-0.256,1.273-0.125,1.942-0.157
			c-0.285-0.179-0.906-0.026-1.321-0.077c0.284-0.232,0.706-0.329,1.01-0.544C33.429,28.386,36.253,28.1,38.444,28.445z"/>
		<path d="M35.025,19.278c-0.441,0.061-0.709-0.606-1.009-0.932c-0.73,0.1-0.92-0.751-1.478-1.01
			c-0.441-0.205-1.123-0.232-1.631-0.388c-0.553-0.171-1.032-0.357-1.631-0.389C31.766,16.58,34.292,17.239,35.025,19.278z"/>
		<path d="M15.366,20.6c0.137,0.826,1.152,2.253,1.865,1.087c0.142,0.798,1.611,1.195,1.632,0.233
			c0.675,1.184,1.832-0.188,1.555-1.166c0.179,0.21,0.027,0.75,0.078,1.088c0.639,0.029,1.36-0.157,1.864,0
			c-0.81,0.422-1.907,0.261-2.564,0.933c1.334,0.203,2.589-0.142,3.885-0.079c0.186,0.049,0.563-0.097,0.621,0.079
			c-0.233,0-0.466,0-0.699,0c-2.109,0.144-4.233,0.272-6.527,0.233c0.057-0.266,0.391-0.087,0.777-0.156
			c-0.369-0.096-0.605-0.328-0.854-0.545c-0.284,0.081-0.481,0.247-0.778,0.312C15.446,22.437,15.359,21.564,15.366,20.6z
			 M18.396,22.93c0.208-0.202,0.686-0.015,0.933,0C19.226,22.419,18.337,22.596,18.396,22.93z"/>
		<path d="M36.656,20.91c0.245-0.037,0.305,0.111,0.466,0.156c-0.071,0.52-0.046,1.224-0.077,2.176
			c-0.01,0.293-0.02,1.103-0.079,0.389c0-0.259,0-0.519,0-0.777c-0.128-0.353,0.03-0.563-0.077-0.854
			C36.658,21.649,36.628,21.229,36.656,20.91z"/>
		<path d="M37.744,22.62c-0.311,0.354-0.113-0.963-0.077-1.243c-0.072,0.056-0.119,0.14-0.155,0.233
			c-0.199-0.205-0.058-0.729,0.311-0.623c0.215,0.962-0.104,2.132,0,2.954C37.5,23.794,37.693,22.902,37.744,22.62z"/>
		<path d="M35.957,21.455c0.341,0.166,0.1,1.008,0.078,1.321C35.847,22.527,35.809,21.788,35.957,21.455z"/>
		<path fill="#FFFFFF" d="M48.7,22.697c-0.09,0.3-0.681,0.097-1.01,0.156c0.519,0.181,1.442-0.043,1.787,0.311
			c-0.925,0.001-2.132,0.061-3.264,0.078c0.142-0.225,0.126-0.243,0.078-0.545C47.166,22.707,48.034,22.462,48.7,22.697z"/>
	</g>
	<text transform="matrix(1 0 0 1 52.1152 30.7275)" font-family="'TimesNewRomanPSMT'" font-size="27.0563">CLARKS</text>
	<text transform="matrix(1 0 0 1 110.082 39.416)" font-family="'TimesNewRomanPSMT'" font-size="7.6356">THE </text>
	<text transform="matrix(1 0 0 1 126.833 39.416)" font-family="'TimesNewRomanPS-BoldMT'" font-size="7.6356">BAKERS</text>
</g>
</svg>
