<?xml version="1.0" encoding="utf-8"?>
<!-- Generator: Adobe Illustrator 16.0.0, SVG Export Plug-In . SVG Version: 6.00 Build 0)  -->
<!DOCTYPE svg PUBLIC "-//W3C//DTD SVG 1.1//EN" "http://www.w3.org/Graphics/SVG/1.1/DTD/svg11.dtd">
<svg version="1.1" id="Layer_1" xmlns="http://www.w3.org/2000/svg" xmlns:xlink="http://www.w3.org/1999/xlink" x="0px" y="0px"
	 width="117.597px" height="48px" viewBox="0 0 117.597 48" enable-background="new 0 0 117.597 48" xml:space="preserve">
<g>
	<path fill="#CE2828" d="M41.583,15.952c-2.626,0-3.6,2.223-3.6,3.168c0.59,0,7.544,0,7.544,0
		C45.549,17.387,44.209,15.952,41.583,15.952z"/>
	<path fill="#CE2828" d="M100.823,3.093h2.737c1.341,0,2.295-0.69,2.295-1.845c0-0.528-0.195-0.951-0.551-1.252h-4.481V3.093
		L100.823,3.093z"/>
	<path fill="#CE2828" d="M110.239-0.007c0.496,1.044,0.782,2.208,0.782,3.438c0,4.45-3.618,8.069-8.065,8.069
		c-4.451,0-8.069-3.619-8.069-8.069c0-1.232,0.287-2.392,0.784-3.438L-0.019-0.001l10.752,47.817
		c6.6-4.342,14.891-6.933,23.907-6.933c9.052,0,17.372,2.612,23.983,6.983c6.61-4.371,14.934-6.983,23.984-6.983
		c9.017,0,17.309,2.591,23.908,6.933L117.27-0.008L110.239-0.007z M30.907,29.024h-2.418h-2.134H15.93l-0.024-15.725h6.352v11.73
		h4.098h2.134h2.418V29.024L30.907,29.024z M42.477,26.215c2.462,0,3.282-1.26,3.404-1.71c1.192,0,5.108,0,5.781,0
		c-0.259,1.279-1.366,2.312-2.363,3.027c-2.405,1.712-6.133,1.95-7.347,1.95c-0.109,0-0.217,0-0.325,0
		c-5.485-0.259-10.324-2.228-10.324-8.42c0-7.468,8.329-8.507,10.214-8.486c0.023,0,0.067,0,0.11,0
		c2.58,0.046,5.614,0.587,7.672,2.795c1.368,1.454,2.3,3.841,2.363,7.07c0,0-13.055,0.018-13.678,0.018
		C37.984,24.764,40.016,26.215,42.477,26.215z M64.426,29.024h-1.184h-4.202l-8.875-15.463l-0.123-0.198h0.123h7.206l5.415,9.927
		l4.875-9.977h4.948L64.426,29.024z M79.66,29.024h-6.291V13.299h6.291V29.024z M84.837,14.706
		c-0.096,0.896-0.731,1.685-1.598,2.031c-0.255,0.094-0.574,0.147-0.935,0.13v-0.655c1.027,0,0.974-1.279,0.896-1.575h-2.066v-2.818
		h2.107h1.601v2.886L84.837,14.706L84.837,14.706z M93.454,29.394c-5.145,0-7.687-1.934-7.961-4.989
		c2.656,0,1.952,0.021,4.587,0.043c0.474,2.008,1.608,2.369,3.899,2.35c1.167,0.086,2.85-0.559,2.85-1.673
		c0-1.08-1.146-1.405-3.671-1.965c-3.834-0.847-7.994-1.605-7.994-4.688c0-3.832,5.194-5.918,9.255-5.77c0.086,0,0.173,0,0.26,0
		c5.787,0,7.789,3.408,7.789,4.948l-4.685,0.046c-0.293-1.682-1.723-1.942-3.473-2.116c-0.151-0.018-0.302-0.018-0.455-0.018
		c-1.663,0-2.946,0.445-2.927,1.632c0.02,1.188,2.013,1.548,3.787,1.675c0.238,0.021,8.141,0.657,8.141,4.947
		C102.857,27.942,98.598,29.394,93.454,29.394z"/>
	<path fill="#CE2828" d="M106.875,1.207c0,1.492-1.02,2.354-2.42,2.613l2.737,3.64h-1.235l-2.589-3.464h-2.547v3.464h-1.007v-7.465
		h-3.031c-0.569,1.019-0.898,2.191-0.898,3.438c0,3.901,3.172,7.07,7.071,7.07c3.898,0,7.068-3.169,7.068-7.07
		c0-1.247-0.327-2.419-0.896-3.439l-2.556,0.001C106.764,0.349,106.875,0.752,106.875,1.207z"/>
	<polygon fill="#FFFFFF" points="26.355,25.026 22.257,25.026 22.257,13.297 15.906,13.297 15.93,29.024 26.355,29.024 
		28.489,29.024 30.907,29.024 30.907,25.026 28.489,25.026 	"/>
	<path fill="#FFFFFF" d="M49.299,15.369c-2.058-2.21-5.093-2.752-7.672-2.796c-0.043,0-0.086,0-0.11,0
		c-1.885-0.018-10.214,1.021-10.214,8.488c0,6.192,4.839,8.161,10.324,8.419c0.109,0,0.217,0,0.325,0
		c1.214,0,4.942-0.238,7.347-1.95c0.999-0.716,2.104-1.745,2.363-3.027c-0.673,0-4.589,0-5.781,0
		c-0.122,0.453-0.942,1.711-3.403,1.711c-2.461,0-4.492-1.449-4.492-3.757c0.622,0,13.677-0.018,13.677-0.018
		C51.598,19.208,50.666,16.822,49.299,15.369z M37.984,19.12c0-0.945,0.972-3.168,3.599-3.168c2.626,0,3.967,1.438,3.945,3.168
		C45.528,19.12,38.574,19.12,37.984,19.12z"/>
	<path fill="#FFFFFF" d="M94.718,18.867c-1.772-0.127-3.767-0.489-3.788-1.675c-0.02-1.185,1.264-1.632,2.927-1.632
		c0.153,0,0.304,0,0.456,0.018c1.75,0.174,3.181,0.433,3.473,2.116l4.686-0.046c0-1.54-2.004-4.948-7.79-4.948
		c-0.085,0-0.173,0-0.258,0c-4.061-0.151-9.257,1.938-9.257,5.77c0,3.085,4.16,3.842,7.994,4.688
		c2.522,0.56,3.673,0.885,3.673,1.965c0,1.114-1.684,1.759-2.85,1.673c-2.29,0.02-3.426-0.339-3.901-2.35
		c-2.633-0.02-1.931-0.043-4.587-0.043c0.275,3.056,2.817,4.989,7.962,4.989s9.402-1.449,9.402-5.577
		C102.857,19.522,94.957,18.889,94.718,18.867z"/>
	<path fill="#FFFFFF" d="M81.132,11.821v2.818h2.066c0.08,0.293,0.131,1.575-0.894,1.575v0.655c0.357,0.017,0.68-0.036,0.932-0.128
		c0.864-0.348,1.505-1.137,1.599-2.031v-2.886h-1.599L81.132,11.821L81.132,11.821z"/>
	<polygon fill="#FFFFFF" points="62.786,23.288 57.371,13.361 50.165,13.361 50.042,13.361 50.165,13.56 59.041,29.024 
		63.243,29.024 64.426,29.024 72.609,13.312 67.661,13.312 	"/>
	<rect x="73.369" y="13.297" fill="#FFFFFF" width="6.291" height="15.725"/>
	<path fill="#FFFFFF" d="M100.823,7.462V3.997h2.55l2.589,3.465h1.234l-2.738-3.64c1.401-0.256,2.421-1.121,2.421-2.612
		c0-0.457-0.112-0.86-0.302-1.213h-1.269c0.355,0.301,0.551,0.724,0.551,1.252c0,1.158-0.954,1.845-2.294,1.845h-2.737v-3.097
		h-1.011v7.466H100.823L100.823,7.462z"/>
	<path fill="#FFFFFF" d="M102.956,11.5c4.447,0,8.065-3.619,8.065-8.069c0-1.232-0.286-2.394-0.782-3.438h-1.112
		c0.57,1.02,0.897,2.192,0.897,3.438c0,3.902-3.17,7.071-7.068,7.071c-3.899,0-7.071-3.169-7.071-7.071
		c0-1.247,0.329-2.42,0.897-3.438h-1.113c-0.495,1.046-0.781,2.208-0.781,3.438C94.888,7.882,98.507,11.5,102.956,11.5z"/>
</g>
</svg>
