<?xml version="1.0" encoding="utf-8"?>
<!-- Generator: Adobe Illustrator 16.0.0, SVG Export Plug-In . SVG Version: 6.00 Build 0)  -->
<!DOCTYPE svg PUBLIC "-//W3C//DTD SVG 1.1//EN" "http://www.w3.org/Graphics/SVG/1.1/DTD/svg11.dtd">
<svg version="1.1" id="Layer_1" xmlns="http://www.w3.org/2000/svg" xmlns:xlink="http://www.w3.org/1999/xlink" x="0px" y="0px"
	 width="117.596px" height="48px" viewBox="0 0 117.596 48" enable-background="new 0 0 117.596 48" xml:space="preserve">
<g>
	<path fill="#CE2828" d="M41.306,15.842c-2.605,0-3.573,2.212-3.573,3.149c0.584,0,7.491,0,7.491,0
		C45.244,17.268,43.917,15.842,41.306,15.842z"/>
	<path fill="#CE2828" d="M0,0.003l10.676,47.483c6.552-4.31,14.784-6.888,23.737-6.888c8.986,0,17.25,2.596,23.814,6.938
		c6.565-4.339,14.826-6.938,23.815-6.938c8.951,0,17.185,2.575,23.738,6.888L116.458,0L0,0.003z M30.707,28.824h-2.402h-2.117
		H15.836l-0.027-15.619h6.307v11.646h4.072h2.117h2.402V28.824z M42.194,26.034c2.444,0,3.259-1.251,3.38-1.699
		c1.184,0,5.075,0,5.741,0c-0.257,1.27-1.355,2.292-2.346,3.005c-2.391,1.701-6.089,1.938-7.297,1.938c-0.104,0-0.216,0-0.32,0
		c-5.447-0.256-10.254-2.213-10.254-8.359c0-7.417,8.268-8.451,10.143-8.43c0.023,0,0.063,0,0.108,0
		c2.561,0.044,5.572,0.583,7.617,2.776c1.354,1.443,2.282,3.812,2.347,7.02c0,0-12.964,0.02-13.581,0.02
		C37.734,24.593,39.749,26.034,42.194,26.034z M63.986,28.824h-1.172h-4.173l-8.813-15.358l-0.123-0.196h0.123h7.154l5.379,9.856
		l4.838-9.907h4.916L63.986,28.824z M79.114,28.824h-6.248V13.205h6.248V28.824z M84.257,14.606
		c-0.092,0.888-0.723,1.669-1.589,2.016c-0.251,0.094-0.567,0.145-0.923,0.131v-0.65c1.019,0,0.966-1.273,0.89-1.564H80.58v-2.797
		h2.088h1.589V14.606L84.257,14.606z M92.81,29.192c-5.106,0-7.636-1.917-7.905-4.955c2.64,0,1.939,0.021,4.557,0.042
		c0.473,1.993,1.597,2.35,3.873,2.332c1.153,0.088,2.834-0.555,2.834-1.659c0-1.073-1.142-1.4-3.648-1.953
		c-3.806-0.841-7.938-1.592-7.938-4.658c0-3.802,5.158-5.875,9.189-5.723c0.087,0,0.169,0,0.257,0c5.743,0,7.733,3.385,7.733,4.909
		l-4.647,0.044c-0.292-1.67-1.714-1.928-3.451-2.099c-0.151-0.022-0.302-0.022-0.449-0.022c-1.653,0-2.928,0.445-2.906,1.623
		c0.022,1.178,2.002,1.537,3.763,1.663c0.235,0.024,8.078,0.654,8.078,4.914C102.148,27.75,97.918,29.192,92.81,29.192z"/>
	<polygon fill="#FFFFFF" points="26.188,24.855 22.116,24.855 22.116,13.208 15.809,13.208 15.836,28.824 26.188,28.824 
		28.305,28.824 30.707,28.824 30.707,24.855 28.305,24.855 	"/>
	<path fill="#FFFFFF" d="M48.969,15.263c-2.043-2.192-5.055-2.729-7.617-2.775c-0.043,0-0.088,0-0.108,0
		c-1.873-0.019-10.143,1.014-10.143,8.431c0,6.144,4.807,8.104,10.254,8.359c0.104,0,0.216,0,0.32,0
		c1.206,0,4.905-0.236,7.296-1.936c0.992-0.716,2.089-1.736,2.347-3.008c-0.667,0-4.559,0-5.741,0c-0.121,0.448-0.934,1.7-3.379,1.7
		s-4.461-1.44-4.461-3.731c0.617,0,13.581-0.019,13.581-0.019C51.251,19.077,50.324,16.707,48.969,15.263z M37.734,18.99
		c0-0.938,0.967-3.149,3.574-3.149c2.608,0,3.939,1.426,3.917,3.149C45.226,18.99,38.318,18.99,37.734,18.99z"/>
	<path fill="#FFFFFF" d="M94.068,18.738c-1.762-0.127-3.743-0.486-3.765-1.664c-0.023-1.179,1.255-1.622,2.906-1.622
		c0.149,0,0.3,0,0.449,0.021c1.737,0.172,3.157,0.431,3.452,2.1l4.648-0.042c0-1.527-1.992-4.911-7.736-4.911
		c-0.086,0-0.167,0-0.257,0c-4.029-0.15-9.19,1.923-9.19,5.723c0,3.068,4.132,3.819,7.939,4.658
		c2.505,0.552,3.648,0.878,3.648,1.953c0,1.104-1.677,1.749-2.836,1.66c-2.275,0.021-3.398-0.339-3.869-2.333
		c-2.619-0.024-1.918-0.042-4.562-0.042c0.275,3.033,2.8,4.955,7.905,4.955c5.112,0,9.34-1.443,9.34-5.538
		C102.148,19.389,94.303,18.76,94.068,18.738z"/>
	<path fill="#FFFFFF" d="M80.574,11.74v2.797h2.055c0.082,0.292,0.131,1.562-0.889,1.562v0.654c0.357,0.013,0.676-0.035,0.927-0.132
		c0.859-0.345,1.493-1.128,1.59-2.02v-2.864h-1.59L80.574,11.74L80.574,11.74z"/>
	<polygon fill="#FFFFFF" points="62.361,23.128 56.982,13.272 49.828,13.272 49.705,13.272 49.828,13.468 58.638,28.824 
		62.812,28.824 63.986,28.824 72.115,13.222 67.199,13.222 	"/>
	<rect x="72.866" y="13.208" fill="#FFFFFF" width="6.248" height="15.616"/>
</g>
</svg>
