<?xml version="1.0" encoding="utf-8"?>
<!-- Generator: Adobe Illustrator 16.0.0, SVG Export Plug-In . SVG Version: 6.00 Build 0)  -->
<!DOCTYPE svg PUBLIC "-//W3C//DTD SVG 1.1//EN" "http://www.w3.org/Graphics/SVG/1.1/DTD/svg11.dtd">
<svg version="1.1" id="Layer_1" xmlns="http://www.w3.org/2000/svg" xmlns:xlink="http://www.w3.org/1999/xlink" x="0px" y="0px"
	 width="110.206px" height="48px" viewBox="0 0 110.206 48" enable-background="new 0 0 110.206 48" xml:space="preserve">
<g>
	<path fill="#CE2828" d="M0-0.297h110.206l-10.183,46.077c-15.486-6.334-30.289-6.462-44.963,0.042
		c-15.06-6.59-30.118-6.504-45.392-0.042L0-0.297L0-0.297z"/>
	<path fill="#EC1C24" d="M98.656,45.948c0.471,0,0.854,0.385,0.854,0.898c0,0.47-0.384,0.855-0.854,0.855
		c-0.514,0-0.899-0.386-0.899-0.855C97.757,46.333,98.143,45.948,98.656,45.948L98.656,45.948z M98.656,46.121
		c-0.386,0-0.728,0.342-0.728,0.726c0,0.342,0.342,0.686,0.728,0.686c0.385,0,0.683-0.344,0.683-0.686
		C99.339,46.463,99.041,46.121,98.656,46.121L98.656,46.121z M98.528,46.763h0.084c0.087,0,0.128,0,0.128,0
		c0.044-0.042,0.044-0.042,0.044-0.086c0-0.042,0-0.087-0.044-0.087c0,0-0.041-0.041-0.128-0.041h-0.084V46.763L98.528,46.763z
		 M98.271,47.275h0.258v-0.343h0.084c0.044,0,0.087,0,0.087,0.043c0.041,0,0.041,0.043,0.041,0.043c0,0.043,0,0.043,0,0.129
		c0.044,0.041,0.044,0.085,0.044,0.128h0.258c0-0.043-0.044-0.087-0.044-0.171c0-0.085,0-0.129,0-0.129
		c-0.043-0.043-0.043-0.085-0.085-0.085c0-0.044-0.045-0.044-0.087-0.044c0.042,0,0.087-0.041,0.129-0.086
		c0.042-0.042,0.042-0.084,0.042-0.126c0-0.087,0-0.13-0.042-0.173c-0.087-0.044-0.171-0.044-0.256-0.044h-0.429V47.275
		L98.271,47.275z"/>
	<path fill="#FFFFFF" d="M93.521,34.014v-1.155h1.328v1.155H93.521L93.521,34.014z M87.703,31.746c0-0.727,0.258-1.327,0.771-1.754
		c0.515-0.385,1.197-0.601,2.097-0.601c0.896,0,1.584,0.216,2.096,0.601c0.557,0.427,0.813,1.026,0.813,1.754
		c0,0.729-0.257,1.327-0.813,1.755C92.154,33.885,91.47,34.1,90.57,34.1s-1.582-0.215-2.097-0.599
		C87.961,33.073,87.703,32.475,87.703,31.746L87.703,31.746z M89.458,31.746c0,0.471,0.084,0.769,0.255,0.984
		c0.216,0.214,0.47,0.299,0.856,0.299c0.384,0,0.685-0.085,0.856-0.299c0.17-0.217,0.256-0.514,0.256-0.984
		s-0.086-0.771-0.256-0.983c-0.172-0.215-0.473-0.301-0.856-0.301c-0.387,0-0.641,0.086-0.856,0.301
		C89.542,30.975,89.458,31.317,89.458,31.746L89.458,31.746z M85.65,32.258h1.582c-0.041,0.602-0.299,1.028-0.727,1.369
		c-0.429,0.344-0.985,0.47-1.71,0.47c-0.856,0-1.499-0.212-1.97-0.596c-0.471-0.43-0.686-1.026-0.686-1.757
		c0-0.726,0.215-1.326,0.686-1.752c0.471-0.385,1.113-0.601,1.926-0.601c0.728,0,1.325,0.13,1.755,0.47
		c0.385,0.301,0.641,0.77,0.685,1.328h-1.584c0-0.215-0.087-0.385-0.215-0.513c-0.169-0.129-0.383-0.172-0.641-0.172
		c-0.3,0-0.555,0.085-0.727,0.3c-0.13,0.214-0.214,0.513-0.214,0.939c0,0.429,0.084,0.728,0.256,0.941
		c0.171,0.216,0.387,0.301,0.729,0.301c0.256,0,0.47-0.042,0.598-0.17C85.563,32.686,85.65,32.475,85.65,32.258L85.65,32.258z
		 M78.719,34.014l-0.428-0.387c-0.258,0.172-0.558,0.301-0.814,0.387c-0.298,0.083-0.641,0.126-0.982,0.126
		c-0.515,0-0.941-0.126-1.24-0.341c-0.3-0.258-0.472-0.6-0.472-1.027c0-0.297,0.087-0.555,0.258-0.771
		c0.171-0.212,0.471-0.428,0.855-0.598c-0.172-0.129-0.3-0.257-0.385-0.385c-0.044-0.172-0.086-0.3-0.086-0.471
		c0-0.386,0.128-0.687,0.429-0.856c0.3-0.213,0.727-0.343,1.283-0.343c0.556,0,0.983,0.13,1.283,0.343
		c0.3,0.256,0.472,0.558,0.472,0.942c0,0.256-0.087,0.47-0.213,0.684c-0.132,0.172-0.343,0.343-0.644,0.472l0.429,0.384
		c0.085-0.043,0.129-0.086,0.215-0.172c0.041-0.042,0.085-0.127,0.171-0.212h1.324c-0.086,0.212-0.214,0.428-0.384,0.6
		c-0.13,0.171-0.302,0.383-0.515,0.556l1.196,1.069H78.719L78.719,34.014z M77.65,32.901l-0.644-0.644
		c-0.171,0.087-0.256,0.173-0.341,0.257c-0.086,0.087-0.13,0.172-0.13,0.302c0,0.085,0.044,0.17,0.13,0.257
		c0.085,0.041,0.17,0.085,0.341,0.085c0.087,0,0.213,0,0.343-0.043C77.436,33.073,77.565,32.986,77.65,32.901L77.65,32.901z
		 M77.137,30.805c0.169-0.042,0.257-0.128,0.34-0.213c0.089-0.044,0.13-0.13,0.13-0.259c0-0.084-0.041-0.171-0.13-0.213
		c-0.083-0.086-0.171-0.128-0.298-0.128c-0.129,0-0.214,0.042-0.302,0.086c-0.085,0.085-0.085,0.172-0.085,0.257
		c0,0.086,0,0.172,0.085,0.257C76.922,30.634,77.008,30.719,77.137,30.805L77.137,30.805z M62.89,32.602h1.712
		c0.041,0.17,0.127,0.3,0.255,0.343c0.129,0.084,0.299,0.129,0.556,0.129c0.215,0,0.385-0.044,0.472-0.087
		c0.128-0.085,0.214-0.127,0.214-0.256c0-0.171-0.258-0.3-0.771-0.385c-0.085-0.042-0.172-0.042-0.213-0.042
		c-0.429-0.087-0.728-0.172-0.984-0.258c-0.214-0.045-0.384-0.128-0.513-0.171c-0.214-0.129-0.386-0.3-0.473-0.47
		c-0.085-0.173-0.17-0.344-0.17-0.558c0-0.471,0.213-0.812,0.643-1.068c0.384-0.258,0.94-0.386,1.667-0.386
		c0.728,0,1.284,0.128,1.668,0.386c0.428,0.215,0.642,0.598,0.685,1.025H65.97c-0.041-0.127-0.085-0.213-0.213-0.298
		c-0.128-0.045-0.256-0.086-0.471-0.086c-0.213,0-0.343,0-0.428,0.086c-0.086,0.041-0.171,0.127-0.171,0.212
		c0,0.171,0.256,0.257,0.726,0.385c0.045,0,0.088,0,0.13,0c0.042,0.044,0.171,0.044,0.298,0.086c0.642,0.128,1.07,0.258,1.241,0.342
		c0.257,0.129,0.428,0.3,0.556,0.47c0.086,0.172,0.172,0.344,0.172,0.601c0,0.472-0.215,0.856-0.643,1.113
		c-0.428,0.3-1.025,0.425-1.839,0.425c-0.726,0-1.284-0.125-1.71-0.425C63.188,33.458,62.933,33.073,62.89,32.602L62.89,32.602z
		 M34.953,32.602h1.711c0.042,0.17,0.129,0.3,0.256,0.343c0.129,0.084,0.3,0.129,0.556,0.129c0.214,0,0.343-0.044,0.47-0.087
		c0.129-0.085,0.172-0.127,0.172-0.256c0-0.171-0.214-0.3-0.728-0.385c-0.085-0.042-0.171-0.042-0.213-0.042
		c-0.428-0.087-0.728-0.172-0.984-0.258c-0.213-0.045-0.428-0.128-0.514-0.171c-0.214-0.129-0.385-0.3-0.471-0.47
		c-0.128-0.173-0.171-0.344-0.171-0.558c0-0.471,0.215-0.812,0.6-1.068c0.428-0.258,0.984-0.386,1.711-0.386
		c0.685,0,1.24,0.128,1.667,0.386c0.386,0.215,0.644,0.598,0.686,1.025h-1.668c-0.043-0.127-0.087-0.213-0.214-0.298
		c-0.129-0.045-0.299-0.086-0.514-0.086c-0.17,0-0.299,0-0.428,0.086c-0.085,0.041-0.129,0.127-0.129,0.212
		c0,0.171,0.257,0.257,0.727,0.385c0.044,0,0.086,0,0.086,0c0.085,0.044,0.17,0.044,0.341,0.086
		c0.642,0.128,1.029,0.258,1.243,0.342c0.256,0.129,0.426,0.3,0.512,0.47c0.127,0.172,0.171,0.344,0.171,0.601
		c0,0.472-0.213,0.856-0.599,1.113c-0.428,0.3-1.027,0.425-1.84,0.425c-0.726,0-1.284-0.125-1.711-0.425
		C35.253,33.458,34.996,33.073,34.953,32.602L34.953,32.602z M68.022,32.602h1.757c0.042,0.17,0.127,0.3,0.256,0.343
		c0.087,0.084,0.3,0.129,0.514,0.129c0.211,0,0.385-0.044,0.514-0.087c0.127-0.085,0.171-0.127,0.171-0.256
		c0-0.171-0.258-0.3-0.728-0.385c-0.13-0.042-0.171-0.042-0.256-0.042c-0.387-0.087-0.729-0.172-0.942-0.258
		c-0.259-0.045-0.428-0.128-0.514-0.171c-0.213-0.129-0.385-0.3-0.513-0.47c-0.085-0.173-0.129-0.344-0.129-0.558
		c0-0.471,0.17-0.812,0.601-1.068c0.428-0.258,0.983-0.386,1.709-0.386c0.687,0,1.24,0.128,1.669,0.386
		c0.384,0.215,0.598,0.598,0.685,1.025h-1.711c0-0.127-0.087-0.213-0.213-0.298c-0.087-0.045-0.259-0.086-0.473-0.086
		c-0.169,0-0.342,0-0.427,0.086c-0.086,0.041-0.129,0.127-0.129,0.212c0,0.171,0.213,0.257,0.727,0.385c0.043,0,0.086,0,0.086,0
		c0.084,0.044,0.171,0.044,0.3,0.086c0.643,0.128,1.067,0.258,1.283,0.342c0.215,0.129,0.385,0.3,0.514,0.47
		c0.129,0.172,0.173,0.344,0.173,0.601c0,0.472-0.217,0.856-0.643,1.113c-0.429,0.3-1.027,0.425-1.797,0.425
		c-0.727,0-1.326-0.125-1.754-0.425C68.323,33.458,68.108,33.073,68.022,32.602L68.022,32.602z M57.199,29.521h1.797v2.782
		c0,0.256,0.087,0.427,0.215,0.513c0.126,0.128,0.34,0.17,0.683,0.17c0.299,0,0.514-0.042,0.644-0.17
		c0.126-0.086,0.213-0.257,0.213-0.513v-2.782h1.795v2.865c0,0.558-0.213,0.984-0.683,1.284c-0.472,0.3-1.112,0.469-1.969,0.469
		c-0.898,0-1.54-0.169-2.011-0.469c-0.47-0.3-0.685-0.727-0.685-1.284V29.521L57.199,29.521z M53.264,32.304h1.327l-0.642-1.585
		L53.264,32.304L53.264,32.304z M50.654,34.014l2.225-4.492h2.097l2.223,4.492h-1.924l-0.342-0.77h-2.011l-0.428,0.77H50.654
		L50.654,34.014z M45.351,34.014v-4.492h2.608c0.812,0,1.37,0.086,1.754,0.298c0.343,0.215,0.514,0.514,0.514,0.985
		c0,0.299-0.085,0.513-0.215,0.685c-0.17,0.171-0.385,0.342-0.683,0.429c0.298,0.041,0.555,0.17,0.683,0.299
		c0.129,0.172,0.215,0.385,0.215,0.685c0,0.385,0.042,0.726,0.042,1.113h-1.625c-0.043-0.13-0.043-0.216-0.085-0.3
		c0-0.088,0-0.129,0-0.173v-0.469c0-0.214-0.043-0.387-0.171-0.472c-0.129-0.087-0.3-0.127-0.557-0.127h-0.77v1.539H45.351
		L45.351,34.014z M47.061,31.447h0.813c0.258,0,0.471-0.042,0.557-0.087c0.128-0.085,0.17-0.17,0.17-0.341
		c0-0.13-0.042-0.257-0.17-0.342c-0.087-0.044-0.3-0.086-0.601-0.086h-0.769V31.447L47.061,31.447z M41.67,34.014v-3.596h-1.627
		v-0.896h5.005v0.896h-1.583v3.596H41.67L41.67,34.014z M30.932,34.014v-4.492h1.541v4.492H30.932L30.932,34.014z M24.429,29.521
		h1.797l1.326,2.953l1.284-2.953h1.625l-2.053,4.492h-1.839L24.429,29.521L24.429,29.521z M20.022,34.014v-4.492h4.107v0.896h-2.481
		v0.771h2.268v1.026h-2.268v0.855h2.566v0.942H20.022L20.022,34.014z M15.574,34.014v-4.492h1.583v3.55h2.267v0.942H15.574
		L15.574,34.014z"/>
	<path fill="#FFFFFF" d="M88.602,22.805c1.796,0,3.294-0.685,2.908-2.696l-0.084-0.213c-0.602-1.711-2.91-1.839-4.452-1.967
		c-3.422-0.299-6.674-0.899-6.972-4.92c-0.086-4.834,5.734-5.604,9.413-5.562c3.078,0.171,8.127,1.326,7.828,5.348H91.17
		c-0.089-0.685-0.346-1.24-0.858-1.71c-1.067-0.856-3.422-1.026-4.363,0.042c-0.684,0.899-0.599,1.754-0.256,2.311
		c0.643,0.941,2.309,1.326,3.508,1.498c2.694,0.428,6.675,0.428,8,3.336c0.557,1.327,0.43,2.909-0.171,4.192
		c-1.198,2.481-4.194,3.38-6.761,3.636c-4.192,0.302-10.481-0.212-10.737-5.689h5.989C85.821,22.205,86.805,22.805,88.602,22.805
		L88.602,22.805z M73.03,8.173v17.625h-5.177V8.173H73.03L73.03,8.173z M51.382,8.173l3.721,12.749l3.722-12.749h6.16l-6.974,17.625
		h-5.946l-6.76-17.625H51.382L51.382,8.173z M19.338,8.173v13.561h6.031v4.064H14.075V8.173H19.338L19.338,8.173z M34.396,26.183
		c-4.491-0.511-7.229-3.721-7.443-8.554l-0.042-0.514c0.042-6.161,2.395-9.455,8.599-9.498c4.791,0.043,8.171,1.411,8.942,6.417
		c0.213,1.37,0.213,2.696,0.213,4.064H32.601c-0.513,2.354,0.429,3.851,1.755,4.448c1.496,0.643,3.549,0.13,4.32-1.795h5.605
		C42.996,25.416,39.06,26.611,34.396,26.183L34.396,26.183z M38.889,15.36c-0.085-1.796,0.128-3.679-1.926-4.363
		c-0.897-0.214-1.925-0.214-2.823,0.085c-1.797,0.897-1.541,2.565-1.584,4.278H38.889L38.889,15.36z M77.436,10.355
		c1.455-0.557,2.566-2.568,2.053-4.065c-0.213-0.684-0.77-1.154-1.455-1.368c-0.513-0.171-0.983-0.214-1.497-0.044
		c-0.77,0.213-1.369,0.77-1.583,1.583c-0.256,1.199,0.6,2.182,1.754,2.439c0.43,0.128,0.813,0.213,1.326,0.256
		c-0.041,0.429-0.341,0.856-0.813,1.284L77.436,10.355L77.436,10.355z"/>
</g>
</svg>
