<?xml version="1.0" encoding="utf-8"?>
<!-- Generator: Adobe Illustrator 16.0.0, SVG Export Plug-In . SVG Version: 6.00 Build 0)  -->
<!DOCTYPE svg PUBLIC "-//W3C//DTD SVG 1.1//EN" "http://www.w3.org/Graphics/SVG/1.1/DTD/svg11.dtd">
<svg version="1.1" id="Layer_1" xmlns="http://www.w3.org/2000/svg" xmlns:xlink="http://www.w3.org/1999/xlink" x="0px" y="0px"
	 width="100px" height="100px" viewBox="0 0 100 100" enable-background="new 0 0 100 100" xml:space="preserve">
<path fill="none" stroke="#244356" stroke-width="4" stroke-linecap="round" stroke-linejoin="round" stroke-miterlimit="10" d="
	M55.292,65.258c2.058,1.343,7.903,2.132,13.244,2.08"/>
<path fill="none" stroke="#244356" stroke-width="4" stroke-linecap="round" stroke-linejoin="round" stroke-miterlimit="10" d="
	M45.103,65.258c-2.058,1.343-7.903,2.132-13.246,2.08"/>
<polyline fill="none" stroke="#244356" stroke-width="4" stroke-linecap="round" stroke-linejoin="round" stroke-miterlimit="10" points="
	46.121,21.447 46.121,3.106 54.273,3.106 54.273,36.729 46.121,36.729 46.121,31.636 "/>
<path fill="none" stroke="#244356" stroke-width="4" stroke-linecap="round" stroke-linejoin="round" stroke-miterlimit="10" d="
	M45.103,65.004c0-2.814,2.281-4.839,5.094-4.839c2.814,0,5.095,2.024,5.095,4.839v5.349H45.103V65.004z"/>
<circle fill="none" stroke="#244356" stroke-width="4" stroke-linecap="round" stroke-linejoin="round" stroke-miterlimit="10" cx="32.876" cy="87.673" r="3.056"/>
<circle fill="none" stroke="#244356" stroke-width="4" stroke-linecap="round" stroke-linejoin="round" stroke-miterlimit="10" cx="67.518" cy="87.673" r="3.056"/>
<line fill="none" stroke="#244356" stroke-width="4" stroke-linecap="round" stroke-linejoin="round" stroke-miterlimit="10" x1="36" y1="88" x2="64" y2="88"/>
<line fill="none" stroke="#244356" stroke-width="4" stroke-linecap="round" stroke-linejoin="round" stroke-miterlimit="10" x1="34.739" y1="84.792" x2="45.103" y2="69.333"/>
<line fill="none" stroke="#244356" stroke-width="4" stroke-linecap="round" stroke-linejoin="round" stroke-miterlimit="10" x1="65.655" y1="84.792" x2="55.292" y2="69.333"/>
<line fill="none" stroke="#244356" stroke-width="4" stroke-linecap="round" stroke-linejoin="round" stroke-miterlimit="10" x1="51" y1="70" x2="51" y2="88"/>
<line fill="none" stroke="#244356" stroke-width="4" stroke-linecap="round" stroke-linejoin="round" stroke-miterlimit="10" x1="44" y1="71" x2="44" y2="87"/>
<line fill="none" stroke="#244356" stroke-width="4" stroke-linecap="round" stroke-linejoin="round" stroke-miterlimit="10" x1="57" y1="71" x2="57" y2="88"/>
<line fill="none" stroke="#244356" stroke-width="4" stroke-linecap="round" stroke-linejoin="round" stroke-miterlimit="10" x1="63" y1="81" x2="63" y2="88"/>
<line fill="none" stroke="#244356" stroke-width="4" stroke-linecap="round" stroke-linejoin="round" stroke-miterlimit="10" x1="38" y1="81" x2="38" y2="88"/>
<path fill="none" stroke="#244356" stroke-width="4" stroke-linecap="round" stroke-linejoin="round" stroke-miterlimit="10" d="
	M43.964,45.164c1.089,1.199,1.057,5.434,1.057,5.434s0.146,5.498-1.057,6.292c-3.782,2.504-17.911,3.239-21.105,0
	c-3.193-3.236,0.203-8.886,4.089-11.726C31.141,42.099,40.904,41.795,43.964,45.164z"/>
<path fill="none" stroke="#244356" stroke-width="4" stroke-linecap="round" stroke-linejoin="round" stroke-miterlimit="10" d="
	M56.278,45.164c-1.091,1.199-1.058,5.434-1.058,5.434s-0.146,5.498,1.058,6.292c3.781,2.504,17.911,3.239,21.105,0
	c3.192-3.236-0.204-8.886-4.09-11.726C69.102,42.099,59.337,41.795,56.278,45.164z"/>
<line fill="none" stroke="#244356" stroke-width="4" stroke-linecap="round" stroke-miterlimit="10" x1="69.68" y1="85.513" x2="77.537" y2="71.969"/>
<path fill="none" stroke="#244356" stroke-width="4" stroke-linecap="round" stroke-miterlimit="10" d="M28.709,20.869
	c4.392-4.753,10.572-7.984,17.412-8.971"/>
<path fill="none" stroke="#244356" stroke-width="4" stroke-linecap="round" stroke-miterlimit="10" d="M23.577,28.81
	c0.407-0.96,0.866-1.893,1.374-2.791"/>
<line fill="none" stroke="#244356" stroke-width="4" stroke-linecap="round" stroke-miterlimit="10" x1="30.715" y1="85.513" x2="22.857" y2="71.969"/>
<path fill="none" stroke="#244356" stroke-width="4" stroke-linecap="round" stroke-miterlimit="10" d="M78.825,85.591
	c7.032-0.975,16.104-4.196,17.45-4.897"/>
<path fill="none" stroke="#244356" stroke-width="4" stroke-linecap="round" stroke-miterlimit="10" d="M21.898,85.591
	c-7.032-0.975-16.432-4.274-17.779-4.975"/>
<path fill="none" stroke="#244356" stroke-width="4" stroke-linecap="round" stroke-miterlimit="10" d="M85.857,46.918
	c0,0-8.49-18.509-31.584-10.189"/>
<path fill="none" stroke="#244356" stroke-width="4" stroke-linecap="round" stroke-miterlimit="10" d="M14.536,46.918
	c0,0,8.491-18.509,31.585-10.189"/>
<path fill="none" stroke="#244356" stroke-width="4" stroke-linecap="round" stroke-miterlimit="10" d="M46.353,5.379
	C28.593,7.42,15,22.502,15,40.805v6.113L4.95,78.854c-1.815,4.87-2.492,9.753,0.914,11.526c9.967,5.188,33.073,6.463,44.386,6.463
	c11.31,0,34.444-1.275,44.412-6.463c3.406-1.773,2.821-6.656,1.007-11.526l-9.846-31.936l0.038-5.063l-0.046-1.05
	c0-18.303-13.67-33.384-31.426-35.426"/>
</svg>
